<?xml version="1.0" encoding="UTF-8"?>
<svg version="1.1" xmlns="http://www.w3.org/2000/svg" width="600" height="600">
<path d="M0 0 C198 0 396 0 600 0 C600 198 600 396 600 600 C402 600 204 600 0 600 C0 402 0 204 0 0 Z " fill="#FEFEFE" transform="translate(0,0)"/>
<path d="M0 0 C1 3 1 3 -0.59375 6.47265625 C-0.96886719 7.17793457 -1.34398437 7.88321289 -1.73046875 8.60986328 C-3.11042063 11.20788807 -4.38785508 13.84187686 -5.65625 16.49609375 C-6.12160156 17.46740234 -6.58695313 18.43871094 -7.06640625 19.43945312 C-7.53949219 20.42880859 -8.01257813 21.41816406 -8.5 22.4375 C-9.20962891 23.91573242 -9.20962891 23.91573242 -9.93359375 25.42382812 C-12.35231346 30.47901933 -14.71525728 35.54956044 -16.97216797 40.67895508 C-19.03989171 45.34827803 -21.18266316 49.98376911 -23.3125 54.625 C-24.0398938 56.21115112 -24.0398938 56.21115112 -24.78198242 57.8293457 C-27.98102704 64.7982939 -31.20500424 71.75486654 -34.45703125 78.69921875 C-35.9819371 81.96135911 -37.49324838 85.2294394 -39 88.5 C-41.45072829 93.81860183 -43.92262545 99.12697637 -46.40332031 104.43164062 C-48.2019066 108.28041872 -49.98131659 112.13735806 -51.75 116 C-55.09600374 123.27077569 -58.56839162 130.48087219 -62.04199219 137.69140625 C-64.48156731 142.76850068 -66.86280435 147.8596431 -69.11254883 153.02392578 C-70.31009155 155.69047621 -71.62889234 158.28756031 -72.97265625 160.8828125 C-73.82419677 162.63769829 -74.60722116 164.42564028 -75.37158203 166.22021484 C-76.86438304 169.71613658 -78.45614804 173.1573549 -80.08203125 176.59375 C-80.68371415 177.86916521 -81.28527109 179.14463986 -81.88671875 180.42016602 C-82.20044434 181.08460724 -82.51416992 181.74904846 -82.83740234 182.43362427 C-89.07798386 195.65833681 -95.18653021 208.93706426 -101.16723633 222.28125 C-107.01851947 235.32383182 -113.10831956 248.2462691 -119.25292969 261.15234375 C-126.50503623 276.38886723 -133.63152903 291.67318265 -140.58032227 307.05029297 C-146.44813321 320.0305513 -152.46323859 332.93963576 -158.51513672 345.83496094 C-159.82679924 348.6308164 -161.13497899 351.42825823 -162.44140625 354.2265625 C-166.17558091 362.21276515 -170.00262355 370.1415213 -174 378 C-174.33 378 -174.66 378 -175 378 C-175.86657734 365.98866217 -176.72501663 353.97676151 -177.57666016 341.96435547 C-177.84574865 338.16900513 -178.1162016 334.37375732 -178.38818359 330.57861328 C-180.18503184 305.46447406 -181.69383886 280.3432444 -182.99804688 255.19848633 C-183.08758133 253.49377419 -183.08758133 253.49377419 -183.17892456 251.75462341 C-183.29002889 249.63491107 -183.39917499 247.51509471 -183.50588989 245.39515686 C-183.78942081 239.99677246 -184.19159357 234.63474768 -184.78001404 229.26065063 C-185.17683027 225.18283198 -185.28811116 221.09299587 -185.4375 217 C-185.75063867 209.28944405 -186.23595369 201.61200065 -186.87109375 193.921875 C-188.24850511 176.59909997 -189.25283869 159.25268203 -190.28710938 141.90673828 C-190.57126039 137.14140287 -190.85904909 132.37629495 -191.1478672 127.61124039 C-191.37224573 123.90356341 -191.59487889 120.19578325 -191.81696701 116.48796844 C-191.92251257 114.72892965 -192.02856549 112.96992122 -192.13515091 111.21094513 C-192.28277669 108.76996319 -192.42807645 106.32885354 -192.57275391 103.88769531 C-192.61636551 103.17400284 -192.65997711 102.46031036 -192.70491028 101.72499084 C-192.93413798 97.81067968 -193.04176154 93.92081214 -193 90 C-183.53800833 85.15006851 -173.98802355 80.59691741 -164.27075195 76.28076172 C-159.59475631 74.19489873 -154.99225877 72.0302723 -150.4375 69.6875 C-142.40678185 65.59097433 -134.13671937 62.04161079 -125.88818359 58.40966797 C-118.95747835 55.3469948 -112.15914517 52.15773535 -105.41796875 48.69921875 C-96.87812802 44.45369793 -88.09017296 40.7072474 -79.37695312 36.83398438 C-67.09000471 31.37576163 -67.09000471 31.37576163 -55 25.5 C-47.01150597 21.44027352 -38.83480744 17.82140814 -30.64941406 14.17919922 C-26.17946159 12.18971613 -21.7142667 10.1897015 -17.25 8.1875 C-16.44095215 7.82672363 -15.6319043 7.46594727 -14.79833984 7.09423828 C-9.79774143 4.85266252 -4.88592515 2.48200536 0 0 Z " fill="#FC30C7" transform="translate(238,30)"/>
<path d="M0 0 C10.43817346 4.62532679 20.78642963 9.32915326 30.9609375 14.51171875 C34.45425729 16.22245762 38.00390658 17.64699039 41.6328125 19.0390625 C46.59274011 21.05249846 51.30720709 23.60240977 56.0546875 26.06640625 C59.60431559 27.8839869 63.15736902 29.48982438 66.875 30.9375 C71.20532869 32.62996434 75.30997603 34.6072856 79.44921875 36.71875 C86.22938777 40.12440917 93.20646848 43.09723795 100.1875 46.0625 C104.45793686 47.88276213 108.65296301 49.75262132 112.77441406 51.88623047 C115.47690371 53.23866112 118.21481863 54.50017683 120.9609375 55.76171875 C122.11891846 56.29458496 123.27689941 56.82745117 124.4699707 57.37646484 C125.63488037 57.91223145 126.79979004 58.44799805 128 59 C143.90937713 66.34433039 159.78141859 73.76490729 175.625 81.25 C176.42906281 81.62984039 177.23312561 82.00968079 178.06155396 82.40103149 C180.3459307 83.4804584 182.63007337 84.5603782 184.9140625 85.640625 C185.60234634 85.96606796 186.29063019 86.29151093 186.99977112 86.6268158 C191.76023411 88.88011706 191.76023411 88.88011706 194 90 C194.20896729 99.61751803 193.55393313 109.15918637 192.8984375 118.74609375 C192.78015365 120.51631992 192.66221265 122.28656902 192.54458618 124.05683899 C192.29153839 127.85545674 192.03628666 131.65391743 191.77929688 135.45227051 C191.36721878 141.54442077 190.96047538 147.63692012 190.5546875 153.72949219 C190.13012457 160.1010886 189.70535928 166.47267078 189.2789917 172.84414673 C187.89421359 193.53979773 186.53341558 214.23698125 185.18360901 234.93494034 C185.00009286 237.74857628 184.81640231 240.5622008 184.63269043 243.37582397 C181.68232062 288.57924738 178.83611861 333.78928593 176 379 C173.33036905 377.66518452 173.14670924 376.43311584 171.99609375 373.69921875 C171.59406738 372.76045898 171.19204102 371.82169922 170.77783203 370.85449219 C170.33552246 369.80938477 169.89321289 368.76427734 169.4375 367.6875 C164.72795045 356.76108848 159.74024525 345.99151626 154.625 335.25 C149.24946782 323.94985501 143.96440558 312.61959334 138.875 301.1875 C138.34036133 299.98689941 137.80572266 298.78629883 137.25488281 297.54931641 C136.26486115 295.32475723 135.27494425 293.10015143 134.28515625 290.87548828 C130.86254329 283.21752182 127.27639215 275.63888473 123.62890625 268.0859375 C117.56299505 255.50541311 111.71436878 242.84473851 106.03491211 230.0859375 C102.73386496 222.6934103 99.25103038 215.42893881 95.59814453 208.20385742 C93.46031833 203.91808088 91.4934177 199.56940934 89.5625 195.1875 C86.72820717 188.82402015 83.85265074 182.48526034 80.875 176.1875 C80.54564453 175.49076172 80.21628906 174.79402344 79.87695312 174.07617188 C79.22901527 172.70687179 78.58074786 171.33772759 77.93212891 169.96875 C71.38082216 156.13173125 65.05893328 142.19250201 58.875 128.1875 C57.55197466 125.20833451 56.18032667 122.27379797 54.6875 119.375 C52.2112109 114.48337662 49.89868945 109.52086721 47.59545898 104.54638672 C45.871037 100.83333583 44.09892679 97.15330112 42.25 93.5 C39.89150512 88.82895495 37.83351649 84.07504804 35.8828125 79.21875 C33.61917548 73.65104653 31.19201142 68.41249789 28.1875 63.2109375 C26.494437 60.05872152 25.23871608 56.77863762 23.94921875 53.4453125 C21.4822335 47.09003362 18.51742626 41.01493625 15.4375 34.9375 C11.79817795 27.74020128 8.37322429 20.45044702 5 13.125 C4.50685303 12.06015381 4.01370605 10.99530762 3.50561523 9.89819336 C2.82221069 8.40557983 2.82221069 8.40557983 2.125 6.8828125 C1.71507812 5.98965332 1.30515625 5.09649414 0.8828125 4.17626953 C0 2 0 2 0 0 Z " fill="#9514EE" transform="translate(361,30)"/>
<path d="M0 0 C69.96 0 139.92 0 212 0 C217.632287 12.39103139 217.632287 12.39103139 219.76171875 17.5390625 C220.23641602 18.68544189 220.71111328 19.83182129 221.20019531 21.01293945 C221.69100586 22.20491943 222.18181641 23.39689941 222.6875 24.625 C223.20800448 25.88566218 223.72851235 27.14632297 224.24902344 28.40698242 C229.26148931 40.5663608 234.15196789 52.77417406 239 65 C236.39797716 67.77485364 234.00500096 69.75717636 230.640625 71.5234375 C229.7851709 71.97944336 228.9297168 72.43544922 228.04833984 72.90527344 C226.66316162 73.63278809 226.66316162 73.63278809 225.25 74.375 C217.19861239 78.68381806 209.24650183 83.1206321 201.375 87.75 C192.69760535 92.8466966 183.99161201 97.88936971 175.25 102.875 C174.37492798 103.37427505 174.37492798 103.37427505 173.48217773 103.88363647 C170.51294924 105.57761546 167.54326905 107.27080012 164.57324219 108.96337891 C159.84216988 111.65962829 155.11246897 114.35827261 150.38427734 117.05957031 C148.06101766 118.3866174 145.73547839 119.70939 143.40869141 121.03027344 C138.07108853 124.0667563 132.75708053 127.12689925 127.50228882 130.30412292 C125.11928764 131.74405891 122.72804418 133.17000546 120.33648682 134.59567261 C118.66446313 135.60126597 117.00560529 136.6286484 115.34716797 137.65649414 C114.33799316 138.2571167 113.32881836 138.85773926 112.2890625 139.4765625 C111.40943848 140.01361816 110.52981445 140.55067383 109.62353516 141.10400391 C106.04870936 142.32488709 104.40154714 141.51917003 101 140 C99.32032259 139.12892183 97.66721106 138.20490594 96.04296875 137.234375 C95.10839844 136.68136719 94.17382812 136.12835937 93.2109375 135.55859375 C92.21320313 134.96175781 91.21546875 134.36492187 90.1875 133.75 C81.68365376 128.72263435 73.13575698 123.79726527 64.5 119 C55.27025844 113.86447161 46.12761208 108.59786397 37.01953125 103.25 C29.89471647 99.07755945 22.71450885 95.01510418 15.5 91 C3.23280372 84.17190468 -8.91474298 77.14501672 -21 70 C-21.91604004 69.4951709 -22.83208008 68.9903418 -23.77587891 68.47021484 C-24.87681885 67.7424585 -24.87681885 67.7424585 -26 67 C-26.71551999 63.1650639 -25.58240999 60.59695077 -23.875 57.1875 C-21.73627148 52.7003637 -19.88822458 48.16734575 -18.1875 43.5 C-13.66851438 31.19575767 -8.54219699 19.10807325 -3.0078125 7.2265625 C-1.93189994 4.84954637 -0.96902322 2.42255805 0 0 Z " fill="#F20C54" transform="translate(194,428)"/>
<path d="M0 0 C0.66 0 1.32 0 2 0 C6.68648876 11.13559496 11.24437726 22.31759213 15.5 33.625 C17.62445802 39.19230959 20.06586861 44.56490337 22.59765625 49.95703125 C24.57209511 54.24139857 26.28681959 58.60641924 28 63 C28.7194227 64.79354685 29.43893682 66.5870577 30.16015625 68.37988281 C32.33026982 73.77517773 34.45289778 79.1814195 36.5 84.625 C38.62445802 90.19230959 41.06586861 95.56490337 43.59765625 100.95703125 C45.57209511 105.24139857 47.28681959 109.60641924 49 114 C49.7194227 115.79354685 50.43893682 117.5870577 51.16015625 119.37988281 C53.33026982 124.77517773 55.45289778 130.1814195 57.5 135.625 C59.61883334 141.17756969 62.05215284 146.5366063 64.578125 151.9140625 C67.14998904 157.49585534 69.5082531 163.0330124 71 169 C24.8 169 -21.4 169 -69 169 C-65.62539022 158.87617066 -65.62539022 158.87617066 -63.6953125 154.29296875 C-63.27636719 153.29330078 -62.85742188 152.29363281 -62.42578125 151.26367188 C-61.99652344 150.24853516 -61.56726563 149.23339844 -61.125 148.1875 C-60.49271484 146.68219727 -60.49271484 146.68219727 -59.84765625 145.14648438 C-58.99148641 143.10817178 -58.13437996 141.07025236 -57.27636719 139.03271484 C-52.93643571 128.72081186 -48.699839 118.36949247 -44.5 108 C-35.03210471 84.62356368 -35.03210471 84.62356368 -30.1875 73.5 C-27.30552706 66.80015569 -24.59365169 60.03832732 -21.89794922 53.26171875 C-19.69554155 47.72762655 -17.45354427 42.21331932 -15.14453125 36.72265625 C-14.34332057 34.81670456 -13.54967216 32.90756434 -12.76171875 30.99609375 C-10.74113792 26.09790554 -8.66972746 21.24327409 -6.4375 16.4375 C-3.96452368 11.06895013 -1.93292393 5.58280264 0 0 Z " fill="#E223AB" transform="translate(299,175)"/>
<path d="M0 0 C69.96 0 139.92 0 212 0 C217.632287 12.39103139 217.632287 12.39103139 219.76171875 17.5390625 C220.23641602 18.68544189 220.71111328 19.83182129 221.20019531 21.01293945 C221.69100586 22.20491943 222.18181641 23.39689941 222.6875 24.625 C223.20800448 25.88566218 223.72851235 27.14632297 224.24902344 28.40698242 C229.26148931 40.5663608 234.15196789 52.77417406 239 65 C236.39797716 67.77485364 234.00500096 69.75717636 230.640625 71.5234375 C229.78428467 71.97992676 228.92794434 72.43641602 228.0456543 72.90673828 C227.12308838 73.39126465 226.20052246 73.87579102 225.25 74.375 C216.96885194 78.80607397 208.79086175 83.37640925 200.6875 88.125 C199.68783203 88.70813965 198.68816406 89.2912793 197.65820312 89.89208984 C193.02247655 92.60488782 188.41225926 95.34869175 183.84765625 98.1796875 C183.06495361 98.65905762 182.28225098 99.13842773 181.47583008 99.63232422 C180.03349462 100.51857663 178.59908581 101.41791432 177.17456055 102.33251953 C175.265625 103.5 175.265625 103.5 172 105 C169.546875 104.25 169.546875 104.25 168 103 C168 101.02 168 99.04 168 97 C167.01 96.67 166.02 96.34 165 96 C163.796875 94.07421875 163.796875 94.07421875 162.75 91.6875 C162.21632813 90.51767578 162.21632813 90.51767578 161.671875 89.32421875 C160.9288665 86.75392773 161.11249004 85.48616571 162 83 C161.401875 82.814375 160.80375 82.62875 160.1875 82.4375 C156.91102975 80.28439098 156.25248292 77.63220048 155 74 C155 72.68 155 71.36 155 70 C154.01 69.34 153.02 68.68 152 68 C151.7834375 66.8553125 151.7834375 66.8553125 151.5625 65.6875 C150.85449702 62.30481911 149.26333124 60.55537398 147 58 C147.66 57.01 148.32 56.02 149 55 C148.01 55.33 147.02 55.66 146 56 C144.875 51.25 144.875 51.25 146 49 C145.01 49.33 144.02 49.66 143 50 C142.67 47.03 142.34 44.06 142 41 C141.01 40.67 140.02 40.34 139 40 C137.5 37.3125 137.5 37.3125 136 34 C133.96396737 29.75088843 131.80382936 25.79873655 129 22 C128.34 22 127.68 22 127 22 C127 21.34 127 20.68 127 20 C122.89776415 18.98459888 122.89776415 18.98459888 119 20 C119.66 18.68 120.32 17.36 121 16 C120.39800781 15.74992187 119.79601562 15.49984375 119.17578125 15.2421875 C116.67923869 13.81687236 115.70047763 12.54759258 114.1875 10.125 C113.74792969 9.44695312 113.30835938 8.76890625 112.85546875 8.0703125 C112 6 112 6 113 2 C75.71 1.67 38.42 1.34 0 1 C0 0.67 0 0.34 0 0 Z M158 77 C159 79 159 79 159 79 Z " fill="#E20871" transform="translate(194,428)"/>
<path d="M0 0 C69.96 0 139.92 0 212 0 C217.632287 12.39103139 217.632287 12.39103139 219.76171875 17.5390625 C220.23641602 18.68544189 220.71111328 19.83182129 221.20019531 21.01293945 C221.69100586 22.20491943 222.18181641 23.39689941 222.6875 24.625 C223.20800448 25.88566218 223.72851235 27.14632297 224.24902344 28.40698242 C229.26148931 40.5663608 234.15196789 52.77417406 239 65 C236.19406613 68.03071862 233.50243139 70.03421814 229.8671875 71.98046875 C228.89652344 72.50447266 227.92585937 73.02847656 226.92578125 73.56835938 C225.91902344 74.10267578 224.91226563 74.63699219 223.875 75.1875 C222.86050781 75.73341797 221.84601563 76.27933594 220.80078125 76.84179688 C213.8858817 80.55705915 213.8858817 80.55705915 211 82 C210.9175 81.360625 210.835 80.72125 210.75 80.0625 C209.35726412 74.37549516 206.76941405 69.18403926 203.75 64.1875 C202 61 202 61 202 57 C201.34 57 200.68 57 200 57 C199.87625 56.030625 199.7525 55.06125 199.625 54.0625 C199.41875 53.051875 199.2125 52.04125 199 51 C198.34 50.67 197.68 50.34 197 50 C196.33333333 47.66666667 195.66666667 45.33333333 195 43 C194.34 42.67 193.68 42.34 193 42 C193 41.01 193 40.02 193 39 C192.34 38.67 191.68 38.34 191 38 C190.140625 36.13671875 190.140625 36.13671875 189.25 33.6875 C186.62390679 26.82609104 183.33525114 20.28387129 179.8203125 13.8359375 C179 12 179 12 179 9 C178.01 8.505 178.01 8.505 177 8 C176.375 5.4375 176.375 5.4375 176 3 C175.34 3 174.68 3 174 3 C174 2.34 174 1.68 174 1 C116.58 1 59.16 1 0 1 C0 0.67 0 0.34 0 0 Z " fill="#CB159C" transform="translate(194,428)"/>
<path d="M0 0 C4.29 0 8.58 0 13 0 C13 0.66 13 1.32 13 2 C13.66 2 14.32 2 15 2 C15.40089844 2.86238281 15.80179687 3.72476562 16.21484375 4.61328125 C19.59696876 11.87933624 23.00383428 19.13315427 26.4375 26.375 C26.81181152 27.16624268 27.18612305 27.95748535 27.57177734 28.77270508 C29.48528314 32.81583701 31.40902322 36.85354212 33.3515625 40.8828125 C33.7235376 41.65963379 34.0955127 42.43645508 34.47875977 43.23681641 C35.18549777 44.71270316 35.89671751 46.18645465 36.61303711 47.65771484 C38.02653086 50.62080315 39 52.67377977 39 56 C39.66 56 40.32 56 41 56 C41.5878125 57.3921875 41.5878125 57.3921875 42.1875 58.8125 C43.9896989 63.02621266 45.90165852 67.18803005 47.81640625 71.3515625 C48.94546008 73.87796017 49.99086355 76.42367929 51 79 C48.24829249 81.9555377 45.58029701 84.11563315 42 86 C41.34 86 40.68 86 40 86 C39.731875 85.236875 39.46375 84.47375 39.1875 83.6875 C38.19741865 81.00940089 38.19741865 81.00940089 36.4375 79.4375 C35 78 35 78 34.5625 76.1875 C34.06647615 73.75255784 34.06647615 73.75255784 32.0625 71.125 C30.0379178 68.05745122 29.08810616 65.48193972 28 62 C27.484375 60.96875 26.96875 59.9375 26.4375 58.875 C25 56 25 56 24.5 53.9375 C24.05558997 51.82214619 24.05558997 51.82214619 22.5 49.5625 C20.98228219 46.96973207 20.42152861 44.95070024 20 42 C19.34 42 18.68 42 18 42 C17.896875 41.278125 17.79375 40.55625 17.6875 39.8125 C16.93266033 36.72451952 15.70816749 34.66474129 14 32 C12.75 29.8125 12.75 29.8125 12 28 C12.33 27.34 12.66 26.68 13 26 C12.01 25.67 11.02 25.34 10 25 C8.57357051 22.2263871 7.97522811 19.83898269 7.5 16.75 C7.2525 15.38875 7.2525 15.38875 7 14 C6.34 13.67 5.68 13.34 5 13 C2.5881755 8.77930712 1.21311318 4.66581991 0 0 Z " fill="#D70883" transform="translate(355,429)"/>
<path d="M0 0 C0.56920166 0.25692627 1.13840332 0.51385254 1.72485352 0.77856445 C4.33709827 1.9572182 6.94979544 3.13486587 9.5625 4.3125 C10.45775391 4.71662109 11.35300781 5.12074219 12.27539062 5.53710938 C17.16413687 7.73973131 22.06311991 9.90741296 27 12 C26.01 12.8971875 26.01 12.8971875 25 13.8125 C22.6626154 15.87501834 22.6626154 15.87501834 23 19 C21.35570171 20.68873879 19.68615782 22.35305515 18 24 C15.45485517 27.66311254 15.45485517 27.66311254 15 32 C12.45514622 28.86243153 10.77215144 25.65537273 9.08203125 21.9921875 C8.55029297 20.84105469 8.01855469 19.68992187 7.47070312 18.50390625 C6.92349609 17.30636719 6.37628906 16.10882813 5.8125 14.875 C5.24839591 13.65739032 4.68394621 12.43994069 4.11914062 11.22265625 C0 2.26013049 0 2.26013049 0 0 Z " fill="#D930E2" transform="translate(361,30)"/>
<path d="M0 0 C0.33 0.66 0.66 1.32 1 2 C3.77985792 2.35766902 6.53624208 2.44409433 9.3359375 2.55859375 C12.35054332 3.05808122 13.13041915 3.66589139 15 6 C15.66 6.66 16.32 7.32 17 8 C17.33 7.34 17.66 6.68 18 6 C19.6045556 6.14148989 21.20863767 6.28835686 22.8125 6.4375 C23.70582031 6.51871094 24.59914063 6.59992188 25.51953125 6.68359375 C28 7 28 7 31 8 C33.14255793 7.61067144 33.14255793 7.61067144 35 7 C37 10 37 10 38 13 C38.66 13.33 39.32 13.66 40 14 C39.34 15.32 38.68 16.64 38 18 C37.54625 17.505 37.0925 17.01 36.625 16.5 C35.12364481 14.77390663 35.12364481 14.77390663 33 15 C31.5393715 17.64738916 31 18.89448334 31 22 C30.34 22.99 29.68 23.98 29 25 C28.34 23.68 27.68 22.36 27 21 C26.34 21 25.68 21 25 21 C25 19.68 25 18.36 25 17 C24.01 17.33 23.02 17.66 22 18 C20.19335938 15.65625 20.19335938 15.65625 18.38671875 13.3125 C16.95508863 11.65629795 16.95508863 11.65629795 14 12 C13.34 11.67 12.68 11.34 12 11 C11.67 11.66 11.34 12.32 11 13 C10.01 11.35 9.02 9.7 8 8 C7.01 8.66 6.02 9.32 5 10 C4.525625 9.360625 4.05125 8.72125 3.5625 8.0625 C2.16261274 6.11706694 2.16261274 6.11706694 1 5 C0.01 5.495 0.01 5.495 -1 6 C-0.67 4.02 -0.34 2.04 0 0 Z " fill="#EA22A3" transform="translate(258,274)"/>
<path d="M0 0 C1.62463842 -0.05395478 3.24978541 -0.09277195 4.875 -0.125 C5.77992188 -0.14820313 6.68484375 -0.17140625 7.6171875 -0.1953125 C10 0 10 0 12 2 C13.2375 2.37125 13.2375 2.37125 14.5 2.75 C17 4 17 4 18.375 6.9375 C19 10 19 10 18 13 C17.34 13 16.68 13 16 13 C15.67 13.66 15.34 14.32 15 15 C14.4225 14.649375 13.845 14.29875 13.25 13.9375 C10.60213494 12.83422289 9.66814674 13.19843491 7 14 C5.96387729 12.59447701 4.94655075 11.17508306 3.9375 9.75 C3.36902344 8.96109375 2.80054688 8.1721875 2.21484375 7.359375 C1 5 1 5 1.31640625 2.703125 C1.54199219 2.14109375 1.76757812 1.5790625 2 1 C1.34 0.67 0.68 0.34 0 0 Z " fill="#EA0A68" transform="translate(305,429)"/>
<path d="M0 0 C9.24 0 18.48 0 28 0 C28 1.32 28 2.64 28 4 C28.66 4.33 29.32 4.66 30 5 C29.34 5 28.68 5 28 5 C28 5.66 28 6.32 28 7 C24.59687262 5.94124926 21.98646769 4.99097846 19 3 C19 3.66 19 4.32 19 5 C17.35 5.66 15.7 6.32 14 7 C13.34 6.01 12.68 5.02 12 4 C9.525 5.485 9.525 5.485 7 7 C7 6.34 7 5.68 7 5 C6.34 5 5.68 5 5 5 C5 5.66 5 6.32 5 7 C3.68 7.33 2.36 7.66 1 8 C-1.125 3.375 -1.125 3.375 0 0 Z M14 3 C14.33 3.66 14.66 4.32 15 5 C15.33 4.34 15.66 3.68 16 3 C15.34 3 14.68 3 14 3 Z " fill="#F31163" transform="translate(268,429)"/>
<path d="M0 0 C0.66 0.33 1.32 0.66 2 1 C1.3613856 5.14714655 -0.02188832 8.52728291 -1.8125 12.3125 C-2.34746094 13.446875 -2.88242188 14.58125 -3.43359375 15.75 C-5.25100026 19.52077859 -7.09882924 23.27078042 -9 27 C-9.33 27 -9.66 27 -10 27 C-10 20.73 -10 14.46 -10 8 C-8.68 7.34 -7.36 6.68 -6 6 C-5.34 5.34 -4.68 4.68 -4 4 C-2 2 -2 2 0 0 Z " fill="#F32997" transform="translate(73,381)"/>
<path d="M0 0 C0.721875 0.495 1.44375 0.99 2.1875 1.5 C5.17466883 3.09315671 6.68000099 3.44864851 10 3 C10.66 2.34 11.32 1.68 12 1 C15.62870159 10.41002278 15.62870159 10.41002278 14 15 C13.34 15 12.68 15 12 15 C12 16.65 12 18.3 12 20 C9.525 19.01 9.525 19.01 7 18 C7 16.68 7 15.36 7 14 C5.71810412 11.96664791 4.37843192 9.96918846 3 8 C0 2.42857143 0 2.42857143 0 0 Z " fill="#CD1FBA" transform="translate(337,290)"/>
<path d="M0 0 C1.32 1.32 2.64 2.64 4 4 C3.34 4 2.68 4 2 4 C1.67 4.99 1.34 5.98 1 7 C-2.47560704 9.18834518 -7.01822684 11.40801212 -11.125 10.5625 C-11.74375 10.376875 -12.3625 10.19125 -13 10 C-15.44493162 10.44453302 -17.63542325 11.21180775 -20 12 C-20.33 12.66 -20.66 13.32 -21 14 C-22.32 14 -23.64 14 -25 14 C-25.33 13.34 -25.66 12.68 -26 12 C-25.0625 9.375 -25.0625 9.375 -24 7 C-22.35 7 -20.7 7 -19 7 C-18.67 6.34 -18.34 5.68 -18 5 C-17.01 5.33 -16.02 5.66 -15 6 C-14.01 5.67 -13.02 5.34 -12 5 C-11.34 5 -10.68 5 -10 5 C-9.195625 4.67 -8.39125 4.34 -7.5625 4 C-5 3 -5 3 -2 3 C-1.34 2.01 -0.68 1.02 0 0 Z " fill="#F21665" transform="translate(211,437)"/>
<path d="M0 0 C1.6396875 0.2475 1.6396875 0.2475 3.3125 0.5 C6.87525873 1.06718184 6.87525873 1.06718184 10 1 C10.66 2.65 11.32 4.3 12 6 C11.01 6.495 11.01 6.495 10 7 C10.66 8.65 11.32 10.3 12 12 C5.52443609 11.38909774 5.52443609 11.38909774 3.0625 9.5625 C2 8 2 8 2 6 C0.02 6.99 0.02 6.99 -2 8 C-1.125 2.25 -1.125 2.25 0 0 Z " fill="#F22297" transform="translate(248,299)"/>
<path d="M0 0 C0.556875 0.350625 1.11375 0.70125 1.6875 1.0625 C4.53886783 2.21845993 6.08517222 1.80967438 9 1 C9.4125 1.804375 9.825 2.60875 10.25 3.4375 C11.73452331 6.14109718 11.73452331 6.14109718 14.1875 6.8125 C14.785625 6.874375 15.38375 6.93625 16 7 C16.33 8.65 16.66 10.3 17 12 C16.01 12.66 15.02 13.32 14 14 C13.67 12.68 13.34 11.36 13 10 C10.525 11.485 10.525 11.485 8 13 C4.00692215 10.22220672 1.78866557 8.50473321 0.625 3.6875 C0.41875 2.470625 0.2125 1.25375 0 0 Z M4 5 C5 7 5 7 5 7 Z M14 10 C15 12 15 12 15 12 Z " fill="#E51D9E" transform="translate(293,304)"/>
<path d="M0 0 C1.9375 0.8125 1.9375 0.8125 4 2 C4.33 2.99 4.66 3.98 5 5 C5.66 5.66 6.32 6.32 7 7 C7 8.66666667 7 10.33333333 7 12 C8.32 12.66 9.64 13.32 11 14 C10.01 14.99 9.02 15.98 8 17 C6.53515625 15.73046875 5.0703125 14.4609375 3.60546875 13.19140625 C1.89287029 11.79128769 1.89287029 11.79128769 -1 11 C-1.33 11.66 -1.66 12.32 -2 13 C-2.99 13.33 -3.98 13.66 -5 14 C-3.45730076 9.27934033 -1.92205381 4.58335908 0 0 Z " fill="#EB24A9" transform="translate(268,250)"/>
<path d="M0 0 C0.99 0.33 1.98 0.66 3 1 C3.75 2.9375 3.75 2.9375 4 5 C3.67 5.66 3.34 6.32 3 7 C3.66 7.66 4.32 8.32 5 9 C5.33333333 10.33333333 5.66666667 11.66666667 6 13 C6.66 13.66 7.32 14.32 8 15 C7.34 15 6.68 15 6 15 C6.33 16.32 6.66 17.64 7 19 C5.68 19 4.36 19 3 19 C3.33 17.68 3.66 16.36 4 15 C1.62387135 13.39092892 1.62387135 13.39092892 -1 12 C-1.99 12.495 -1.99 12.495 -3 13 C-3.66 11.35 -4.32 9.7 -5 8 C-4.360625 7.236875 -3.72125 6.47375 -3.0625 5.6875 C-0.85767219 3.11753287 -0.85767219 3.11753287 0 0 Z " fill="#E127BB" transform="translate(295,228)"/>
<path d="M0 0 C0.66 0.33 1.32 0.66 2 1 C2 2.66666667 2 4.33333333 2 6 C2.598125 6.268125 3.19625 6.53625 3.8125 6.8125 C6.04593283 8.02493496 7.49938199 8.94652273 9 11 C8.6875 13.1875 8.6875 13.1875 8 15 C5.69 14.67 3.38 14.34 1 14 C0.49008407 11.96033628 -0.01844869 9.92159308 -0.5 7.875 C-0.95138724 5.92918141 -0.95138724 5.92918141 -2 4 C-1.0625 1.875 -1.0625 1.875 0 0 Z " fill="#D71CAB" transform="translate(326,304)"/>
<path d="M0 0 C0.99 0.99 1.98 1.98 3 3 C3.66 3.33 4.32 3.66 5 4 C5 4.99 5 5.98 5 7 C5.639375 7.268125 6.27875 7.53625 6.9375 7.8125 C9 9 9 9 10 12 C7.25 12.25 7.25 12.25 4 12 C1.625 10 1.625 10 0 8 C-0.99 8.33 -1.98 8.66 -3 9 C-2.01 6.03 -1.02 3.06 0 0 Z " fill="#E527B9" transform="translate(280,221)"/>
<path d="M0 0 C0.33 0 0.66 0 1 0 C1.12375 1.134375 1.2475 2.26875 1.375 3.4375 C1.684375 5.2009375 1.684375 5.2009375 2 7 C2.66 7.33 3.32 7.66 4 8 C7.80066445 10.41860465 7.80066445 10.41860465 8.75 13.1875 C8.87375 14.0846875 8.87375 14.0846875 9 15 C7.68 15.33 6.36 15.66 5 16 C2.525 12.04 2.525 12.04 0 8 C-0.99 8.33 -1.98 8.66 -3 9 C-2.01 6.03 -1.02 3.06 0 0 Z " fill="#E034C8" transform="translate(292,192)"/>
<path d="M0 0 C6.75 2.5 6.75 2.5 9 7 C5.37 7 1.74 7 -2 7 C-1.34 5.68 -0.68 4.36 0 3 C0 2.01 0 1.02 0 0 Z " fill="#EC1C90" transform="translate(285,336)"/>
<path d="M0 0 C0.33 0.66 0.66 1.32 1 2 C1.66 2.33 2.32 2.66 3 3 C3.625 6.0625 3.625 6.0625 4 9 C3.21625 8.814375 2.4325 8.62875 1.625 8.4375 C-0.97089775 7.74037734 -0.97089775 7.74037734 -3 9 C-2.01 6.03 -1.02 3.06 0 0 Z " fill="#EA32B5" transform="translate(274,236)"/>
<path d="M0 0 C0.66 0.66 1.32 1.32 2 2 C1.67 2.66 1.34 3.32 1 4 C1.66 4.33 2.32 4.66 3 5 C2.34 5 1.68 5 1 5 C1.66 7.31 2.32 9.62 3 12 C2.01 12.495 2.01 12.495 1 13 C0.43983252 11.59054634 -0.09748502 10.1719969 -0.625 8.75 C-0.92664063 7.96109375 -1.22828125 7.1721875 -1.5390625 6.359375 C-2.09752136 3.50082285 -1.53690745 2.41040161 0 0 Z " fill="#E90765" transform="translate(357,509)"/>
<path d="M0 0 C0.99 0 1.98 0 3 0 C5.875 6.625 5.875 6.625 7 10 C5.68 10.33 4.36 10.66 3 11 C2.87625 10.484375 2.7525 9.96875 2.625 9.4375 C1.81358372 6.27297649 0.9054087 3.13875015 0 0 Z " fill="#DA27C3" transform="translate(311,227)"/>
<path d="M0 0 C0.33 0.66 0.66 1.32 1 2 C1.66 2 2.32 2 3 2 C3 3.32 3 4.64 3 6 C2.34 6 1.68 6 1 6 C0.67 6.66 0.34 7.32 0 8 C-0.99 8.33 -1.98 8.66 -3 9 C-2.01 6.03 -1.02 3.06 0 0 Z " fill="#EF3AB0" transform="translate(266,255)"/>
<path d="M0 0 C0.99 0 1.98 0 3 0 C3.33 1.65 3.66 3.3 4 5 C2.02 5.66 0.04 6.32 -2 7 C-1.34 4.69 -0.68 2.38 0 0 Z " fill="#F32B72" transform="translate(187,444)"/>
<path d="M0 0 C3.14958831 3.42346555 3.56179109 6.44262737 4 11 C3.34 10.34 2.68 9.68 2 9 C2 8.01 2 7.02 2 6 C1.01 6.33 0.02 6.66 -1 7 C-1.04254356 5.00045254 -1.04080783 2.99958364 -1 1 C-0.67 0.67 -0.34 0.34 0 0 Z " fill="#E826B2" transform="translate(279,241)"/>
<path d="M0 0 C2.79651501 1.46817038 3.43411431 2.40553901 4.5 5.3125 C1.04074837 4.0633258 -1.64693203 2.63722205 -4.5 0.3125 C-2.5 -0.6875 -2.5 -0.6875 0 0 Z " fill="#EF215F" transform="translate(196.5,507.6875)"/>
<path d="M0 0 C2.0625 0.4375 2.0625 0.4375 4 1 C4.144375 1.78375 4.28875 2.5675 4.4375 3.375 C4.87798925 5.96421018 4.87798925 5.96421018 6 8 C4.1875 7.875 4.1875 7.875 2 7 C0.25 3.9375 0.25 3.9375 -1 1 C-0.67 0.67 -0.34 0.34 0 0 Z " fill="#E90765" transform="translate(331,461)"/>
<path d="M0 0 C0.66 0.33 1.32 0.66 2 1 C2.20086443 4.71599191 2.1519437 5.77208445 0 9 C-0.99 9 -1.98 9 -3 9 C-2.01 6.03 -1.02 3.06 0 0 Z " fill="#E83EC1" transform="translate(280,221)"/>
<path d="M0 0 C1.74627478 2.61941217 2.38722388 4.03824877 3 7 C1.35 7 -0.3 7 -2 7 C-1.125 2.25 -1.125 2.25 0 0 Z " fill="#D437C4" transform="translate(348,291)"/>
<path d="M0 0 C0.66 0 1.32 0 2 0 C3.74627478 2.61941217 4.38722388 4.03824877 5 7 C2.525 6.01 2.525 6.01 0 5 C0 3.35 0 1.7 0 0 Z " fill="#E90765" transform="translate(346,491)"/>
<path d="M0 0 C2.92879371 0.62759865 5.36095629 1.58622659 8 3 C7.67 3.99 7.34 4.98 7 6 C2.32307692 4.52307692 2.32307692 4.52307692 0.6875 1.875 C0.460625 1.25625 0.23375 0.6375 0 0 Z " fill="#EE1E95" transform="translate(268,315)"/>
<path d="M0 0 C1.32 0.66 2.64 1.32 4 2 C3.67 3.32 3.34 4.64 3 6 C1.68 5.67 0.36 5.34 -1 5 C-0.67 3.35 -0.34 1.7 0 0 Z " fill="#EE33B0" transform="translate(268,250)"/>
<path d="M0 0 C0.99 0.33 1.98 0.66 3 1 C2.67 1.99 2.34 2.98 2 4 C1.34 4 0.68 4 0 4 C-0.33 4.99 -0.66 5.98 -1 7 C-1.33 6.34 -1.66 5.68 -2 5 C-1.0625 2.375 -1.0625 2.375 0 0 Z M3 0 C5 1 5 1 5 1 Z " fill="#F43AA2" transform="translate(248,299)"/>
<path d="M0 0 C0.33 0.66 0.66 1.32 1 2 C2.32 2 3.64 2 5 2 C5 2.99 5 3.98 5 5 C3.02 5.33 1.04 5.66 -1 6 C-0.67 4.02 -0.34 2.04 0 0 Z " fill="#F138AA" transform="translate(258,274)"/>
<path d="M0 0 C3 1 3 1 4.0625 2.9375 C4.371875 3.618125 4.68125 4.29875 5 5 C5.66 5.66 6.32 6.32 7 7 C5.68 7.33 4.36 7.66 3 8 C0 3.375 0 3.375 0 0 Z " fill="#DA22B5" transform="translate(313,271)"/>
</svg>
