<?xml version="1.0" encoding="UTF-8"?>
<svg version="1.1" xmlns="http://www.w3.org/2000/svg" width="280" height="94">
<path d="M0 0 C1.07770157 0.00565979 2.15540314 0.01131958 3.26576233 0.01715088 C6.68935593 0.0394434 10.11188189 0.08962829 13.53515625 0.140625 C15.86391712 0.16069913 18.19269448 0.1789483 20.52148438 0.1953125 C26.21390256 0.23928478 31.90570311 0.3061259 37.59765625 0.390625 C37.59765625 2.700625 37.59765625 5.010625 37.59765625 7.390625 C37.00074982 7.39871185 36.40384338 7.40679871 35.78884888 7.41513062 C29.59224655 7.50099697 23.39597077 7.60049193 17.19970703 7.70800781 C14.88530956 7.74635901 12.57085123 7.7812009 10.25634766 7.8125 C6.93499961 7.8580174 3.61407284 7.91603343 0.29296875 7.9765625 C-0.74665009 7.98811371 -1.78626892 7.99966492 -2.85739136 8.01156616 C-3.81823639 8.03143585 -4.77908142 8.05130554 -5.76904297 8.07177734 C-7.0414534 8.09176285 -7.0414534 8.09176285 -8.33956909 8.1121521 C-10.62420494 8.20838658 -10.62420494 8.20838658 -12.40234375 10.390625 C-13.87136988 15.19166154 -13.56426244 20.28499444 -13.5703125 25.2578125 C-13.5736409 26.21076202 -13.5769693 27.16371155 -13.58039856 28.14553833 C-13.58545173 30.15773029 -13.58780738 32.1699306 -13.58764648 34.18212891 C-13.58983109 37.24786295 -13.60799884 40.31323589 -13.62695312 43.37890625 C-13.62988782 45.33854044 -13.63187211 47.29817634 -13.6328125 49.2578125 C-13.63999802 50.16844452 -13.64718353 51.07907654 -13.65458679 52.01730347 C-13.65151016 52.88154938 -13.64843353 53.74579529 -13.64526367 54.63623047 C-13.6474012 55.76277542 -13.6474012 55.76277542 -13.64958191 56.91207886 C-13.39595611 60.19881657 -13.39595611 60.19881657 -11.40234375 66.390625 C2.12765625 66.390625 15.65765625 66.390625 29.59765625 66.390625 C29.92765625 56.490625 30.25765625 46.590625 30.59765625 36.390625 C23.00765625 36.390625 15.41765625 36.390625 7.59765625 36.390625 C7.59765625 34.410625 7.59765625 32.430625 7.59765625 30.390625 C17.16765625 30.390625 26.73765625 30.390625 36.59765625 30.390625 C38.24989072 33.69509393 37.78225088 37.37816394 37.80078125 41.01171875 C37.80648132 41.86741959 37.8121814 42.72312042 37.8180542 43.60475159 C37.82750724 45.41625734 37.83403939 47.22778032 37.83789062 49.03930664 C37.84760545 51.81361766 37.87862916 54.58719078 37.91015625 57.36132812 C37.91668534 59.11978726 37.92193618 60.8782517 37.92578125 62.63671875 C37.93812805 63.46803818 37.95047485 64.2993576 37.9631958 65.15586853 C37.94086246 70.91670845 37.94086246 70.91670845 36.3536377 73.10842896 C34.13640885 74.72742217 32.87638693 74.77598668 30.14550781 74.79467773 C29.24737366 74.80736191 28.3492395 74.82004608 27.42388916 74.83311462 C26.45513855 74.83017899 25.48638794 74.82724335 24.48828125 74.82421875 C23.48810974 74.8294606 22.48793823 74.83470245 21.4574585 74.84010315 C19.33916146 74.84653005 17.22082876 74.84517775 15.10253906 74.83666992 C11.87369394 74.82819336 8.6466375 74.85685869 5.41796875 74.88867188 C3.35807345 74.89028489 1.29817502 74.88970443 -0.76171875 74.88671875 C-1.72237244 74.89795273 -2.68302612 74.90918671 -3.67279053 74.92076111 C-9.75893815 74.85807178 -13.53616072 74.16447179 -18.40234375 70.390625 C-22.46989242 65.06501271 -21.83597597 58.86915299 -21.80078125 52.45703125 C-21.80365143 51.30573227 -21.80652161 50.15443329 -21.80947876 48.96824646 C-21.81151633 46.53831489 -21.806008 44.10836681 -21.79345703 41.6784668 C-21.77741464 37.96951394 -21.79330957 34.26165324 -21.8125 30.55273438 C-21.81051723 28.18749761 -21.80667285 25.82226151 -21.80078125 23.45703125 C-21.80685394 22.35267227 -21.81292664 21.24831329 -21.81918335 20.11048889 C-21.76508429 14.15391712 -21.65241079 9.48145634 -18.40234375 4.390625 C-12.61019302 -0.3077433 -7.24349356 -0.14439021 0 0 Z " fill="#4434EC" transform="translate(94.40234375,9.609375)"/>
<path d="M0 0 C1.07911652 0.00424484 2.15823303 0.00848969 3.27005005 0.01286316 C6.70372874 0.02960455 10.13681233 0.06724931 13.5703125 0.10546875 C15.90363733 0.12052141 18.2369714 0.1342088 20.5703125 0.14648438 C26.27884757 0.17949321 31.98703751 0.2296477 37.6953125 0.29296875 C37.6953125 2.60296875 37.6953125 4.91296875 37.6953125 7.29296875 C35.74310791 7.32269775 35.74310791 7.32269775 33.75146484 7.35302734 C28.90947566 7.42926622 24.06777982 7.51795549 19.22607422 7.61035156 C17.1330343 7.64856581 15.0399304 7.68343173 12.94677734 7.71484375 C9.93303609 7.76065834 6.91973242 7.81862594 3.90625 7.87890625 C2.50903214 7.89623306 2.50903214 7.89623306 1.08358765 7.91390991 C-3.71497932 8.02220109 -7.85480121 8.27550771 -12.3046875 10.29296875 C-13.54139834 12.76639043 -13.43400569 14.43156186 -13.4375 17.1953125 C-13.43878906 18.16791016 -13.44007813 19.14050781 -13.44140625 20.14257812 C-13.43753906 21.16158203 -13.43367187 22.18058594 -13.4296875 23.23046875 C-13.43355469 24.24560547 -13.43742188 25.26074219 -13.44140625 26.30664062 C-13.44011719 27.28052734 -13.43882812 28.25441406 -13.4375 29.2578125 C-13.43637207 30.15105225 -13.43524414 31.04429199 -13.43408203 31.96459961 C-13.39834824 34.45048752 -13.39834824 34.45048752 -12.3046875 37.29296875 C0.2353125 37.62296875 12.7753125 37.95296875 25.6953125 38.29296875 C25.6953125 38.95296875 25.6953125 39.61296875 25.6953125 40.29296875 C26.3553125 40.29296875 27.0153125 40.29296875 27.6953125 40.29296875 C27.75319034 43.91790209 27.7888667 47.54271732 27.8203125 51.16796875 C27.83707031 52.20050781 27.85382813 53.23304687 27.87109375 54.296875 C27.88076172 55.77607422 27.88076172 55.77607422 27.890625 57.28515625 C27.90633545 58.65196533 27.90633545 58.65196533 27.92236328 60.04638672 C27.6953125 62.29296875 27.6953125 62.29296875 25.6953125 64.29296875 C23.67050171 64.53347778 23.67050171 64.53347778 21.15380859 64.52001953 C20.21298431 64.51986847 19.27216003 64.51971741 18.30282593 64.51956177 C17.28508087 64.5092392 16.26733582 64.49891663 15.21875 64.48828125 C14.17836578 64.48545135 13.13798157 64.48262146 12.06607056 64.47970581 C8.73403556 64.46848579 5.40226664 64.4433779 2.0703125 64.41796875 C-0.18489196 64.40794131 -2.44010062 64.39881505 -4.6953125 64.390625 C-10.23186204 64.36854053 -15.76825577 64.33504514 -21.3046875 64.29296875 C-21.3046875 62.31296875 -21.3046875 60.33296875 -21.3046875 58.29296875 C-7.7746875 57.96296875 5.7553125 57.63296875 19.6953125 57.29296875 C19.6953125 53.66296875 19.6953125 50.03296875 19.6953125 46.29296875 C18.18964722 46.28680542 18.18964722 46.28680542 16.65356445 46.28051758 C12.91639406 46.25868563 9.18027049 46.20435581 5.44360352 46.14038086 C3.82879701 46.11723589 2.21384029 46.10281332 0.59887695 46.09741211 C-1.72799898 46.08809601 -4.05252426 46.04705507 -6.37890625 46 C-7.45575935 46.00589897 -7.45575935 46.00589897 -8.55436707 46.01191711 C-12.39046126 45.90115763 -14.14559793 45.42012403 -17.17504883 42.9987793 C-22.15026803 36.6775189 -21.67105881 31.3455224 -21.6796875 23.48046875 C-21.70417969 22.31708984 -21.72867188 21.15371094 -21.75390625 19.95507812 C-21.77686582 13.2317503 -21.65004984 8.58391659 -17.3046875 3.29296875 C-11.7756695 -0.46937423 -6.43163557 -0.0956783 0 0 Z " fill="#412EF6" transform="translate(233.3046875,9.70703125)"/>
<path d="M0 0 C0.85049423 0.00222061 1.70098846 0.00444122 2.57725525 0.00672913 C4.01863609 0.00684242 4.01863609 0.00684242 5.48913574 0.00695801 C7.05630592 0.01469994 7.05630592 0.01469994 8.65513611 0.02259827 C9.71913132 0.02401321 10.78312653 0.02542816 11.87936401 0.02688599 C15.29293069 0.03250388 18.70643286 0.04505941 22.11997986 0.05775452 C24.42792162 0.06276721 26.73586441 0.06733052 29.04380798 0.07142639 C34.71505412 0.08247912 40.38626238 0.09923465 46.05747986 0.12025452 C46.05747986 2.10025452 46.05747986 4.08025452 46.05747986 6.12025452 C25.26747986 6.61525452 25.26747986 6.61525452 4.05747986 7.12025452 C3.72747986 10.42025452 3.39747986 13.72025452 3.05747986 17.12025452 C4.03096375 17.14007385 5.00444763 17.15989319 6.00743103 17.18031311 C9.63252337 17.25660819 13.25722679 17.34528788 16.88194275 17.43763733 C18.44827067 17.47582861 20.01468334 17.51069846 21.5811615 17.54212952 C23.83789786 17.58799523 26.09405568 17.6459522 28.35044861 17.70619202 C29.39449104 17.72351883 29.39449104 17.72351883 30.45962524 17.74119568 C34.40379499 17.859882 37.49627389 18.40146756 41.05747986 20.12025452 C41.05747986 20.78025452 41.05747986 21.44025452 41.05747986 22.12025452 C41.71747986 22.12025452 42.37747986 22.12025452 43.05747986 22.12025452 C46.46141508 28.45085363 46.5102346 34.08547476 46.43247986 41.18275452 C46.44408142 42.24558655 46.45568298 43.30841858 46.46763611 44.40345764 C46.42901169 54.70974043 46.42901169 54.70974043 43.05747986 59.12025452 C36.9979106 63.56454933 32.02202248 63.65772942 24.65513611 63.51087952 C23.57743454 63.50521973 22.49973297 63.49955994 21.38937378 63.49372864 C17.96578018 63.47143612 14.54325422 63.42125123 11.11997986 63.37025452 C8.79121899 63.35018039 6.46244163 63.33193122 4.13365173 63.31556702 C-1.55876645 63.27159474 -7.250567 63.20475361 -12.94252014 63.12025452 C-12.94252014 60.81025452 -12.94252014 58.50025452 -12.94252014 56.12025452 C3.22747986 55.79025452 19.39747986 55.46025452 36.05747986 55.12025452 C37.65206639 49.53920167 38.33038706 46.14138532 38.30747986 40.55775452 C38.31263611 39.29834045 38.31779236 38.03892639 38.32310486 36.74134827 C37.91000619 30.97548325 37.91000619 30.97548325 35.05747986 26.12025452 C32.41651112 25.98488369 29.79797349 25.90971002 27.15513611 25.87416077 C25.52687544 25.8412264 23.89862037 25.80801468 22.27037048 25.77455139 C19.69171456 25.72707638 17.11308199 25.68264966 14.5342865 25.64344788 C12.05349368 25.60382921 9.5731717 25.55226284 7.09263611 25.49916077 C6.31863968 25.49074661 5.54464325 25.48233246 4.74719238 25.47366333 C-0.71584662 25.34692803 -0.71584662 25.34692803 -2.94252014 23.12025452 C-3.18544006 20.88954163 -3.18544006 20.88954163 -3.17298889 18.14759827 C-3.1710553 17.16597717 -3.1691217 16.18435608 -3.16712952 15.17298889 C-3.15488342 14.14496155 -3.14263733 13.1169342 -3.13002014 12.05775452 C-3.12937561 11.02585999 -3.12873108 9.99396545 -3.12806702 8.93080139 C-3.07634894 0.19044583 -3.07634894 0.19044583 0 0 Z " fill="#402DF0" transform="translate(224.94252014160156,20.879745483398438)"/>
<path d="M0 0 C1.26651146 -0.0099852 1.26651146 -0.0099852 2.55860901 -0.02017212 C4.33958771 -0.03027081 6.12060403 -0.03499 7.90161133 -0.03466797 C10.61668541 -0.03904281 13.33013488 -0.07539478 16.04492188 -0.11328125 C17.77994239 -0.11914981 19.51497058 -0.12311894 21.25 -0.125 C22.05642441 -0.13937103 22.86284882 -0.15374207 23.69371033 -0.16854858 C28.99189226 -0.12588916 32.00879751 0.80167779 36.19140625 4.3359375 C39.42128162 7.74033101 39.55844613 10.22630478 39.53198242 14.84863281 C39.53263954 15.81511246 39.53263954 15.81511246 39.53330994 16.80111694 C39.53122649 18.92241131 39.50791806 21.04290688 39.484375 23.1640625 C39.47877743 24.63807748 39.47450809 26.11209805 39.47151184 27.58612061 C39.46007566 31.45946756 39.43061939 35.33247526 39.3973999 39.20568848 C39.36667236 43.16051647 39.35300079 47.11539946 39.33789062 51.0703125 C39.30574821 58.82567524 39.2545671 66.58075877 39.19140625 74.3359375 C37.21140625 74.3359375 35.23140625 74.3359375 33.19140625 74.3359375 C33.1833194 73.56585861 33.17523254 72.79577972 33.16690063 72.00236511 C33.08898721 64.74809007 33.00170665 57.49401711 32.90387917 50.23998547 C32.85391507 46.51053277 32.80758522 42.78110842 32.76953125 39.05151367 C32.7326796 35.45281381 32.68632032 31.85435099 32.63334274 28.25585365 C32.61479808 26.88236966 32.59969035 25.50883485 32.58806229 24.13527489 C32.57120188 22.21272222 32.54103171 20.29030016 32.51025391 18.36791992 C32.49693024 17.27315842 32.48360657 16.17839691 32.46987915 15.05046082 C32.38235625 12.11656187 32.38235625 12.11656187 30.19140625 9.3359375 C25.07014739 7.30079121 18.81130618 8.1499958 13.40185547 8.15063477 C11.33019346 8.14845203 9.25906767 8.1302859 7.1875 8.11132812 C5.87136719 8.10939453 4.55523438 8.10746094 3.19921875 8.10546875 C1.9992627 8.10135986 0.79930664 8.09725098 -0.43701172 8.09301758 C-3.98176002 8.348414 -6.60353877 8.78757503 -9.80859375 10.3359375 C-11.731281 14.03247726 -12.07439885 17.19110148 -12.12744141 21.31958008 C-12.1473111 22.50042679 -12.16718079 23.6812735 -12.18765259 24.89790344 C-12.2049794 26.79502327 -12.2049794 26.79502327 -12.22265625 28.73046875 C-12.2420224 30.03296066 -12.26138855 31.33545258 -12.28134155 32.67741394 C-12.33253893 36.128011 -12.37223051 39.57864694 -12.40948486 43.02941895 C-12.44960263 46.55551676 -12.50065937 50.08145458 -12.55078125 53.60742188 C-12.64739348 60.51681 -12.73184497 67.42630096 -12.80859375 74.3359375 C-14.78859375 74.3359375 -16.76859375 74.3359375 -18.80859375 74.3359375 C-18.9247139 65.98197455 -19.01342231 57.62835172 -19.06765461 49.27377987 C-19.09369058 45.39389876 -19.12897649 41.51457192 -19.18579102 37.63500977 C-19.24032853 33.88725441 -19.27005938 30.14003036 -19.28297997 26.39190865 C-19.29218122 24.9657817 -19.31014956 23.53968212 -19.33724403 22.11378288 C-19.56619685 9.55940026 -19.56619685 9.55940026 -16.59057617 5.02954102 C-11.40694999 0.01058993 -6.88348622 0.01895013 0 0 Z " fill="#3A25F7" transform="translate(25.80859375,9.6640625)"/>
<path d="M0 0 C0.83050873 0.00444122 1.66101746 0.00888245 2.51669312 0.01345825 C3.92792953 0.01368484 3.92792953 0.01368484 5.36767578 0.01391602 C6.38542084 0.02423859 7.40316589 0.03456116 8.45175171 0.04519653 C9.49213593 0.04802643 10.53252014 0.05085632 11.60443115 0.05377197 C14.93646615 0.064992 18.26823507 0.09009989 21.60018921 0.11550903 C23.85539367 0.12553648 26.11060233 0.13466273 28.36581421 0.14285278 C33.90236375 0.16493725 39.43875748 0.19843265 44.97518921 0.24050903 C44.97518921 2.55050903 44.97518921 4.86050903 44.97518921 7.24050903 C31.11518921 7.24050903 17.25518921 7.24050903 2.97518921 7.24050903 C2.95456421 13.65488403 2.93393921 20.06925903 2.91268921 26.67800903 C2.90358521 28.70497925 2.8944812 30.73194946 2.88510132 32.82034302 C2.88218218 34.41742893 2.87963362 36.01451558 2.87753296 37.61160278 C2.87241699 38.44856689 2.86730103 39.28553101 2.86203003 40.14785767 C2.86171996 42.17909169 2.91278733 44.21023374 2.97518921 46.24050903 C4.66035875 47.92567858 6.76286709 47.37058922 9.06893921 47.37332153 C10.09890015 47.3746106 11.12886108 47.37589966 12.19003296 47.37722778 C13.27413452 47.3733606 14.35823608 47.36949341 15.47518921 47.36550903 C17.10134155 47.37130981 17.10134155 47.37130981 18.76034546 47.37722778 C19.7903064 47.37593872 20.82026733 47.37464966 21.88143921 47.37332153 C22.83341187 47.3721936 23.78538452 47.37106567 24.76620483 47.36990356 C26.94971059 47.4875036 26.94971059 47.4875036 27.97518921 46.24050903 C28.07309491 44.74312779 28.10493785 43.24108011 28.10018921 41.74050903 C28.10276733 40.92582153 28.10534546 40.11113403 28.10800171 39.27175903 C28.19970701 37.24520526 28.19970701 37.24520526 26.97518921 36.24050903 C24.95924339 36.00623126 22.93671521 35.82714779 20.91268921 35.67800903 C19.80796265 35.59421997 18.70323608 35.51043091 17.56503296 35.42410278 C16.71038452 35.36351685 15.85573608 35.30293091 14.97518921 35.24050903 C14.97518921 32.93050903 14.97518921 30.62050903 14.97518921 28.24050903 C17.9337633 28.18671678 20.89136642 28.14693811 23.85018921 28.11550903 C24.69194702 28.09875122 25.53370483 28.08199341 26.40097046 28.06472778 C27.60946655 28.05505981 27.60946655 28.05505981 28.84237671 28.04519653 C29.58600464 28.0347229 30.32963257 28.02424927 31.09579468 28.01345825 C32.97518921 28.24050903 32.97518921 28.24050903 34.97518921 30.24050903 C35.21810913 32.5630188 35.21810913 32.5630188 35.20565796 35.43191528 C35.20372437 36.45865356 35.20179077 37.48539185 35.19979858 38.54324341 C35.18142944 40.15682739 35.18142944 40.15682739 35.16268921 41.80300903 C35.16204468 42.88259888 35.16140015 43.96218872 35.16073608 45.07449341 C35.11533519 53.10036306 35.11533519 53.10036306 33.97518921 54.24050903 C31.33232647 54.35387529 28.71657465 54.40468664 26.07284546 54.40847778 C25.27994614 54.41180618 24.48704681 54.41513458 23.67012024 54.41856384 C21.98967063 54.4236363 20.30921092 54.42597207 18.62875366 54.42581177 C16.05200662 54.42799689 13.47568845 54.44614512 10.89901733 54.46511841 C9.26946151 54.46805249 7.63990365 54.47003719 6.01034546 54.47097778 C4.84935081 54.48175606 4.84935081 54.48175606 3.66490173 54.49275208 C-1.79598826 54.46933156 -1.79598826 54.46933156 -4.02481079 52.24050903 C-4.27877808 50.11526489 -4.27877808 50.11526489 -4.28359985 47.45535278 C-4.28990417 46.46092163 -4.2962085 45.46649048 -4.30270386 44.44192505 C-4.2986554 43.36483276 -4.29460693 42.28774048 -4.29043579 41.17800903 C-4.29234924 40.07578003 -4.2942627 38.97355103 -4.29623413 37.83792114 C-4.29759691 35.50434135 -4.29389401 33.170754 -4.28555298 30.83718872 C-4.274855 27.25531057 -4.28544537 23.673934 -4.29824829 20.09207153 C-4.29692671 17.82904959 -4.29436436 15.56602795 -4.29043579 13.30300903 C-4.29448425 12.22591675 -4.29853271 11.14882446 -4.30270386 10.03909302 C-4.29639954 9.04466187 -4.29009521 8.05023071 -4.28359985 7.02566528 C-4.28200867 6.14789429 -4.28041748 5.27012329 -4.27877808 4.36575317 C-3.92592885 1.41304708 -2.9774816 0.35366822 0 0 Z " fill="#4B3AF5" transform="translate(87.02481079101563,19.759490966796875)"/>
<path d="M0 0 C1.55521173 0.00031721 3.11044535 0.0116478 4.66552734 0.03173828 C5.89316299 0.03598312 5.89316299 0.03598312 7.14559937 0.04031372 C9.76436877 0.05152546 12.38279848 0.07663149 15.00146484 0.10205078 C16.77489741 0.11207931 18.54833533 0.12120538 20.32177734 0.12939453 C24.6734711 0.151468 29.02491034 0.18600434 33.37646484 0.22705078 C34.72791138 2.92994386 34.49621649 5.02774884 34.48999023 8.05371094 C34.4899147 9.27482574 34.48983917 10.49594055 34.48976135 11.75405884 C34.48465436 13.09141073 34.47943836 14.42876221 34.47412109 15.76611328 C34.47225624 17.13088937 34.47083266 18.49566612 34.46983337 19.86044312 C34.46601347 23.45420171 34.45618768 27.04791996 34.44512939 30.6416626 C34.43490396 34.30814061 34.43033332 37.97462513 34.42529297 41.64111328 C34.41456494 48.83644419 34.39749483 56.03174183 34.37646484 63.22705078 C32.39646484 63.22705078 30.41646484 63.22705078 28.37646484 63.22705078 C28.04646484 44.74705078 27.71646484 26.26705078 27.37646484 7.22705078 C19.12646484 6.89705078 10.87646484 6.56705078 2.37646484 6.22705078 C2.04646484 25.03705078 1.71646484 43.84705078 1.37646484 63.22705078 C-0.93353516 63.22705078 -3.24353516 63.22705078 -5.62353516 63.22705078 C-5.66982461 55.308195 -5.70538698 47.38939552 -5.7271595 39.470438 C-5.7376079 35.79355728 -5.75178618 32.11676895 -5.77441406 28.43994141 C-5.79610506 24.89325423 -5.80809582 21.34665606 -5.81328964 17.79990768 C-5.81699216 16.44507826 -5.82422205 15.09025384 -5.83499527 13.73546219 C-5.84945963 11.84159321 -5.85035164 9.94763514 -5.85058594 8.05371094 C-5.85724777 6.4348851 -5.85724777 6.4348851 -5.86404419 4.78335571 C-5.46263996 0.51693958 -4.14836892 0.25993687 0 0 Z " fill="#4B3BF1" transform="translate(21.62353515625,20.77294921875)"/>
<path d="M0 0 C3.20815845 -0.08774066 6.41600462 -0.14063706 9.625 -0.1875 C10.52863281 -0.21263672 11.43226563 -0.23777344 12.36328125 -0.26367188 C17.68615504 -0.32195152 21.41531745 -0.02775593 26 3 C30.67657879 8.18215487 31.22515742 11.81178588 31.5625 18.625 C31.60568359 19.42679688 31.64886719 20.22859375 31.69335938 21.0546875 C31.79951457 23.0362511 31.90026855 25.01810271 32 27 C32.01417969 25.69804688 32.02835938 24.39609375 32.04296875 23.0546875 C32.08988715 21.32809034 32.13813444 19.60152893 32.1875 17.875 C32.19330078 17.0190625 32.19910156 16.163125 32.20507812 15.28125 C32.3512577 11.05828456 32.59279115 7.91433399 35.23828125 4.5078125 C39.28128656 0.83651206 42.6676109 -0.26174711 48.08203125 -0.1953125 C49.47905273 -0.18564453 49.47905273 -0.18564453 50.90429688 -0.17578125 C51.86400391 -0.15902344 52.82371094 -0.14226563 53.8125 -0.125 C54.79154297 -0.11597656 55.77058594 -0.10695313 56.77929688 -0.09765625 C59.18645061 -0.07417182 61.59309743 -0.0413284 64 0 C64 2.31 64 4.62 64 7 C62.37191406 7.07347656 62.37191406 7.07347656 60.7109375 7.1484375 C59.26560216 7.22351986 57.82029081 7.29906528 56.375 7.375 C55.66214844 7.4059375 54.94929688 7.436875 54.21484375 7.46875 C49.87716636 7.70752123 45.96069337 8.06128223 42 10 C39.06061447 14.35337565 39.58566848 20.16167744 39.4375 25.25 C39.37783597 27.06784886 39.31425188 28.88557479 39.24609375 30.703125 C39.22216553 31.50395508 39.1982373 32.30478516 39.17358398 33.12988281 C39 35 39 35 38 36 C36.02380553 36.12514928 34.04261827 36.1757276 32.0625 36.1875 C30.98097656 36.20167969 29.89945313 36.21585938 28.78515625 36.23046875 C26 36 26 36 24 34 C23.71289062 32.13989258 23.71289062 32.13989258 23.65625 29.89453125 C23.62660156 29.07533203 23.59695312 28.25613281 23.56640625 27.41210938 C23.54449219 26.55423828 23.52257812 25.69636719 23.5 24.8125 C23.45606337 23.13127776 23.40410347 21.45024423 23.34375 19.76953125 C23.31571289 18.64961792 23.31571289 18.64961792 23.28710938 17.50708008 C22.97749154 14.19892286 22.97749154 14.19892286 21 8 C14.07 7.67 7.14 7.34 0 7 C0 4.69 0 2.38 0 0 Z " fill="#4938EF" transform="translate(140,10)"/>
<path d="M0 0 C1.09054688 0.02320313 2.18109375 0.04640625 3.3046875 0.0703125 C4.40039062 0.08835938 5.49609375 0.10640625 6.625 0.125 C7.88957031 0.15980469 7.88957031 0.15980469 9.1796875 0.1953125 C10.3133697 2.4626769 10.3457672 3.85078583 10.42578125 6.37109375 C10.45865234 7.19931641 10.49152344 8.02753906 10.52539062 8.88085938 C10.5861749 10.62032417 10.64351465 12.35991304 10.69726562 14.09960938 C10.84598508 20.43072499 10.84598508 20.43072499 13.1796875 26.1953125 C17.37820249 28.77293187 22.19507694 28.62730218 26.9921875 28.8203125 C27.78044922 28.85898438 28.56871094 28.89765625 29.38085938 28.9375 C31.3134413 29.03120094 33.24653126 29.11432029 35.1796875 29.1953125 C35.1796875 31.5053125 35.1796875 33.8153125 35.1796875 36.1953125 C31.80485337 36.28298805 28.43031535 36.33592878 25.0546875 36.3828125 C24.10335937 36.40794922 23.15203125 36.43308594 22.171875 36.45898438 C15.35558829 36.52998736 11.0913227 35.7894036 5.8515625 31.12109375 C3.45585583 26.92860708 3.50768586 23.13716693 3.4296875 18.3828125 C3.40003906 17.49916016 3.37039062 16.61550781 3.33984375 15.70507812 C3.2694836 13.53564032 3.22228143 11.36547302 3.1796875 9.1953125 C3.15390625 10.35289063 3.128125 11.51046875 3.1015625 12.703125 C3.04525401 14.24222378 2.9879073 15.78128483 2.9296875 17.3203125 C2.90841797 18.46113281 2.90841797 18.46113281 2.88671875 19.625 C2.65971345 24.891523 1.64421296 28.00847823 -1.8203125 32.1953125 C-5.80440948 34.9462366 -8.57687385 36.32343553 -13.390625 36.29296875 C-14.28652344 36.28974609 -15.18242187 36.28652344 -16.10546875 36.28320312 C-17.51119141 36.27063477 -17.51119141 36.27063477 -18.9453125 36.2578125 C-19.89019531 36.25330078 -20.83507812 36.24878906 -21.80859375 36.24414062 C-24.14589637 36.23233607 -26.48307311 36.21587009 -28.8203125 36.1953125 C-28.8203125 33.8853125 -28.8203125 31.5753125 -28.8203125 29.1953125 C-18.4253125 28.7003125 -18.4253125 28.7003125 -7.8203125 28.1953125 C-6.04633291 22.22734193 -6.04633291 22.22734193 -5.4765625 16.42578125 C-5.44691406 15.60013672 -5.41726562 14.77449219 -5.38671875 13.92382812 C-5.34193784 12.21029971 -5.29767849 10.4967576 -5.25390625 8.78320312 C-5.20943359 7.5544043 -5.20943359 7.5544043 -5.1640625 6.30078125 C-5.14537109 5.55981201 -5.12667969 4.81884277 -5.10742188 4.05541992 C-4.5904568 0.70613684 -3.21083599 0.22235706 0 0 Z " fill="#4C3BF0" transform="translate(168.8203125,47.8046875)"/>
<path d="M0 0 C0.82741699 0.01047363 1.65483398 0.02094727 2.50732422 0.03173828 C3.40322266 0.03818359 4.29912109 0.04462891 5.22216797 0.05126953 C6.62789062 0.07640625 6.62789062 0.07640625 8.06201172 0.10205078 C9.00689453 0.11107422 9.95177734 0.12009766 10.92529297 0.12939453 C13.26278464 0.15300556 15.59977295 0.18593562 17.93701172 0.22705078 C17.93701172 2.20705078 17.93701172 4.18705078 17.93701172 6.22705078 C13.31701172 6.22705078 8.69701172 6.22705078 3.93701172 6.22705078 C3.93701172 19.75705078 3.93701172 33.28705078 3.93701172 47.22705078 C8.55701172 47.22705078 13.17701172 47.22705078 17.93701172 47.22705078 C17.93701172 49.20705078 17.93701172 51.18705078 17.93701172 53.22705078 C14.64541856 53.28495431 11.35395569 53.32061339 8.06201172 53.35205078 C7.12486328 53.36880859 6.18771484 53.38556641 5.22216797 53.40283203 C4.32626953 53.40927734 3.43037109 53.41572266 2.50732422 53.42236328 C1.67990723 53.43283691 0.85249023 53.44331055 0 53.45410156 C-2.06298828 53.22705078 -2.06298828 53.22705078 -4.06298828 51.22705078 C-4.31695557 49.13977051 -4.31695557 49.13977051 -4.32177734 46.53369141 C-4.32808167 45.55928101 -4.33438599 44.58487061 -4.34088135 43.58093262 C-4.33683289 42.52571411 -4.33278442 41.47049561 -4.32861328 40.38330078 C-4.33052673 39.30326782 -4.33244019 38.22323486 -4.33441162 37.11047363 C-4.33577435 34.82397224 -4.3320718 32.53746314 -4.32373047 30.25097656 C-4.3130324 26.74152324 -4.32362301 23.23258185 -4.33642578 19.72314453 C-4.3351042 17.50569548 -4.33254184 15.28824675 -4.32861328 13.07080078 C-4.33266174 12.01558228 -4.33671021 10.96036377 -4.34088135 9.87316895 C-4.33457703 8.89875854 -4.32827271 7.92434814 -4.32177734 6.92041016 C-4.32018616 6.06040405 -4.31859497 5.20039795 -4.31695557 4.31433105 C-3.9567616 1.35400582 -2.97492725 0.32741803 0 0 Z " fill="#4B3BEE" transform="translate(186.06298828125,20.77294921875)"/>
<path d="M0 0 C3.12492251 -0.05791844 6.24970766 -0.09356746 9.375 -0.125 C10.26445312 -0.14175781 11.15390625 -0.15851562 12.0703125 -0.17578125 C12.92109375 -0.18222656 13.771875 -0.18867188 14.6484375 -0.1953125 C15.82672119 -0.21102295 15.82672119 -0.21102295 17.02880859 -0.22705078 C19 0 19 0 21 2 C21.25396729 4.08728027 21.25396729 4.08728027 21.25878906 6.69335938 C21.26509338 7.66776978 21.27139771 8.64218018 21.27789307 9.64611816 C21.2738446 10.70133667 21.26979614 11.75655518 21.265625 12.84375 C21.26753845 13.92378296 21.2694519 15.00381592 21.27142334 16.11657715 C21.27278607 18.40307854 21.26908352 20.68958764 21.26074219 22.97607422 C21.25004412 26.48552755 21.26063473 29.99446893 21.2734375 33.50390625 C21.27211592 35.7213553 21.26955356 37.93880403 21.265625 40.15625 C21.26967346 41.21146851 21.27372192 42.26668701 21.27789307 43.35388184 C21.27158875 44.32829224 21.26528442 45.30270264 21.25878906 46.30664062 C21.25640228 47.59664978 21.25640228 47.59664978 21.25396729 48.91271973 C21 51 21 51 19 53 C17.02880859 53.22705078 17.02880859 53.22705078 14.6484375 53.1953125 C13.79765625 53.18886719 12.946875 53.18242188 12.0703125 53.17578125 C11.18085938 53.15902344 10.29140625 53.14226562 9.375 53.125 C8.02921875 53.11146484 8.02921875 53.11146484 6.65625 53.09765625 C4.43723414 53.0740497 2.21874923 53.0411231 0 53 C0 51.02 0 49.04 0 47 C4.62 46.67 9.24 46.34 14 46 C14 32.8 14 19.6 14 6 C9.38 6 4.76 6 0 6 C0 4.02 0 2.04 0 0 Z " fill="#4C3BF1" transform="translate(140,21)"/>
<path d="M0 0 C0.71770065 0.00404846 1.43540131 0.00809692 2.17485046 0.01226807 C2.91482773 0.01035461 3.65480499 0.00844116 4.41720581 0.00646973 C5.98494303 0.0051076 7.55269151 0.00880599 9.1204071 0.01715088 C11.51056087 0.02780499 13.89995523 0.01728053 16.29008484 0.00445557 C17.81417503 0.00577805 19.33826475 0.00834227 20.86235046 0.01226807 C21.57397842 0.0082196 22.28560638 0.00417114 23.01879883 0 C27.01329475 0.03736995 30.20761334 0.30684048 33.71781921 2.27789307 C36.79857772 5.52731282 37.08619419 7.82906359 37.05839539 12.23980713 C37.0580555 14.04122162 37.0580555 14.04122162 37.05770874 15.87902832 C37.04222488 17.17080994 37.02674103 18.46259155 37.01078796 19.79351807 C37.00518973 21.13301111 37.0009207 22.47251032 36.9979248 23.81201172 C36.98649375 27.33027227 36.95704215 30.84815877 36.92381287 34.36627197 C36.8930741 37.9591567 36.87941138 41.55210212 36.86430359 45.14508057 C36.83217034 52.18950403 36.78099542 59.23367407 36.71781921 66.27789307 C37.70781921 66.27789307 38.69781921 66.27789307 39.71781921 66.27789307 C39.71781921 45.15789307 39.71781921 24.03789307 39.71781921 2.27789307 C40.04781921 2.27789307 40.37781921 2.27789307 40.71781921 2.27789307 C40.71781921 24.05789307 40.71781921 45.83789307 40.71781921 68.27789307 C38.73781921 68.27789307 36.75781921 68.27789307 34.71781921 68.27789307 C34.70973236 67.50781418 34.70164551 66.73773529 34.6933136 65.94432068 C34.61540017 58.69004563 34.52811962 51.43597268 34.43029213 44.18194103 C34.38032804 40.45248834 34.33399818 36.72306398 34.29594421 32.99346924 C34.25909256 29.39476938 34.21273329 25.79630655 34.15975571 22.19780922 C34.14121104 20.82432523 34.12610331 19.45079042 34.11447525 18.07723045 C34.09761484 16.15467778 34.06744467 14.23225573 34.03666687 12.30987549 C34.0233432 11.21511398 34.01001953 10.12035248 33.99629211 8.99241638 C33.90876921 6.05851744 33.90876921 6.05851744 31.71781921 3.27789307 C27.95146295 1.69572866 23.6902536 2.15238909 19.67094421 2.18023682 C18.51414154 2.18235924 18.51414154 2.18235924 17.33396912 2.18452454 C14.87854583 2.19010773 12.42321479 2.20265711 9.96781921 2.21539307 C8.29985178 2.22041024 6.63188292 2.22497277 4.96391296 2.22906494 C0.88184634 2.24007166 -3.2001516 2.2573247 -7.28218079 2.27789307 C-4.80796959 -0.19631813 -3.37784516 0.03205073 0 0 Z " fill="#6E69D7" transform="translate(24.282180786132813,15.72210693359375)"/>
<path d="M0 0 C-0.33 0.66 -0.66 1.32 -1 2 C-16.51 2 -32.02 2 -48 2 C-48 3.32 -48 4.64 -48 6 C-41.576942 5.88193353 -35.15404019 5.75711425 -28.73120117 5.62768555 C-26.54796291 5.58447714 -24.36469392 5.54279261 -22.18139648 5.50268555 C-19.03620154 5.44464025 -15.89115925 5.3810458 -12.74609375 5.31640625 C-11.7760289 5.29969376 -10.80596405 5.28298126 -9.8065033 5.26576233 C-4.78249853 5.15689437 0.04413459 4.84144905 5 4 C3.706348 6.587304 2.66404647 6.9457786 0 8 C-2.34124756 8.24050903 -2.34124756 8.24050903 -4.95214844 8.22705078 C-5.93286316 8.22689972 -6.91357788 8.22674866 -7.92401123 8.22659302 C-9.5007663 8.21110916 -9.5007663 8.21110916 -11.109375 8.1953125 C-12.19132141 8.1924826 -13.27326782 8.18965271 -14.38800049 8.18673706 C-17.84211304 8.17554609 -21.29596588 8.1504432 -24.75 8.125 C-27.09244417 8.11496881 -29.43489241 8.1058432 -31.77734375 8.09765625 C-37.51831771 8.0756103 -43.2591403 8.04214334 -49 8 C-49 5.69 -49 3.38 -49 1 C-42.82529334 0.85685371 -36.65057 0.71445819 -30.47583008 0.57275391 C-28.37589044 0.52445708 -26.27595548 0.47595623 -24.17602539 0.42724609 C-21.15512281 0.35720861 -18.13420407 0.28790832 -15.11328125 0.21875 C-14.17664139 0.19687622 -13.24000153 0.17500244 -12.27497864 0.15246582 C-11.39444321 0.13244507 -10.51390778 0.11242432 -9.60668945 0.09179688 C-8.83613724 0.07403198 -8.06558502 0.05626709 -7.27168274 0.03796387 C-4.8473913 -0.00255036 -2.42458476 -0.00628846 0 0 Z " fill="#8988D5" transform="translate(261,76)"/>
<path d="M0 0 C1.47107208 0.00033989 1.47107208 0.00033989 2.97186279 0.00068665 C4.02303284 0.0161705 5.07420288 0.03165436 6.15722656 0.04760742 C7.23917297 0.05185226 8.32111938 0.05609711 9.43585205 0.06047058 C12.89010546 0.07725772 16.3437746 0.1149109 19.79785156 0.15307617 C22.14029105 0.16812292 24.48273969 0.18181134 26.82519531 0.1940918 C32.56627994 0.22716137 38.30702401 0.27736151 44.04785156 0.34057617 C44.04785156 2.65057617 44.04785156 4.96057617 44.04785156 7.34057617 C27.87785156 7.67057617 11.70785156 8.00057617 -4.95214844 8.34057617 C-2.95214844 6.34057617 -2.95214844 6.34057617 -1.00326538 6.10006714 C-0.20828644 6.10450836 0.5866925 6.10894958 1.40576172 6.11352539 C2.30654449 6.11367645 3.20732727 6.11382751 4.13540649 6.11398315 C5.10940399 6.12430573 6.08340149 6.1346283 7.08691406 6.14526367 C8.08290619 6.14809357 9.07889832 6.15092346 10.10507202 6.15383911 C13.29445275 6.16505777 16.48355534 6.19016536 19.67285156 6.21557617 C21.83170168 6.22560379 23.99055619 6.23473002 26.14941406 6.24291992 C31.44898855 6.26500256 36.74840019 6.29849659 42.04785156 6.34057617 C42.04785156 5.02057617 42.04785156 3.70057617 42.04785156 2.34057617 C16.80285156 2.83557617 16.80285156 2.83557617 -8.95214844 3.34057617 C-4.45214844 -0.03442383 -4.45214844 -0.03442383 0 0 Z " fill="#706CCF" transform="translate(226.9521484375,9.659423828125)"/>
<path d="M0 0 C0.99 0.33 1.98 0.66 3 1 C1.7934375 1.37125 1.7934375 1.37125 0.5625 1.75 C-2.11441409 2.69127946 -2.11441409 2.69127946 -2.65206909 4.75260925 C-3.04205887 7.27167091 -3.12716892 9.6582737 -3.12939453 12.20825195 C-3.13254669 13.24645584 -3.13569885 14.28465973 -3.13894653 15.35432434 C-3.1369223 16.47103012 -3.13489807 17.5877359 -3.1328125 18.73828125 C-3.13376923 19.89241013 -3.13472595 21.046539 -3.13571167 22.23564148 C-3.13639213 24.67752131 -3.13454716 27.11940295 -3.13037109 29.5612793 C-3.1250356 33.28763938 -3.13031311 37.01387812 -3.13671875 40.74023438 C-3.13605766 43.1145836 -3.13477586 45.48893275 -3.1328125 47.86328125 C-3.13483673 48.97391434 -3.13686096 50.08454742 -3.13894653 51.22883606 C-3.12280506 56.59365736 -2.94777375 61.71571429 -2 67 C-0.35 67.66 1.3 68.32 3 69 C1.515 69.495 1.515 69.495 0 70 C-3.42009405 66.80791222 -5.75308848 64.31666165 -6.26069641 59.55400085 C-6.2653038 58.64245743 -6.26991119 57.730914 -6.2746582 56.79174805 C-6.28419022 55.75354416 -6.29372223 54.71534027 -6.30354309 53.64567566 C-6.30263168 52.52896988 -6.30172028 51.4122641 -6.30078125 50.26171875 C-6.30506638 49.10758987 -6.3093515 47.953461 -6.31376648 46.76435852 C-6.31950915 44.32248592 -6.32001051 41.88059621 -6.31567383 39.4387207 C-6.31252082 35.71210311 -6.33595084 31.98628467 -6.36132812 28.25976562 C-6.36360188 25.88541767 -6.36430426 23.51106758 -6.36328125 21.13671875 C-6.372491 20.02608566 -6.38170074 18.91545258 -6.39118958 17.77116394 C-6.35545757 11.76116767 -6.04775433 7.24764388 -3 2 C-2.01 1.34 -1.02 0.68 0 0 Z " fill="#726EC7" transform="translate(79,12)"/>
</svg>
